# xmcd CD database file
#
# Track frame offsets:
#	150
#	14586
#	27229
#	38249
#	53299
#	64517
#	75980
#	87620
#	102700
#	114955
#	127704
#	140005
#	152459
#	166752
#	179396
#	193111
#	207314
#	220072
#	233489
#
# Disc length: 3284 seconds
#
# Revision: 0
# Processed by: cddbd v1.5.1PL2 Copyright (c) Steve Scherf et al.
# Submitted via: CDex 1.51
#
DISCID=f00cd213
DTITLE=Jelly Roll Morton - Vol. 1
DYEAR=1900
DGENRE=Jazz
TTITLE0=Black Bottom Stomp
TTITLE1=Sweet Peter
TTITLE2=Jersey Joe
TTITLE3=Down my Way
TTITLE4=Gerorgia Swing
TTITLE5=King Porter Stomp
TTITLE6=My Gal
TTITLE7=Futuristic Blues
TTITLE8=Perfect Rag
TTITLE9=Frog-I-More Rag
TTITLE10=Wolverine Blues
TTITLE11=Sweet Aneta Mine
TTITLE12=Tank Town Blump
TTITLE13=M. Jelly Lord
TTITLE14=Tom Cat Blues
TTITLE15=Seatle Hunch
TTITLE16=Weary Blues
TTITLE17=London Blues
TTITLE18=The Pearls
EXTD=
EXTT0=
EXTT1=
EXTT2=
EXTT3=
EXTT4=
EXTT5=
EXTT6=
EXTT7=
EXTT8=
EXTT9=
EXTT10=
EXTT11=
EXTT12=
EXTT13=
EXTT14=
EXTT15=
EXTT16=
EXTT17=
EXTT18=
PLAYORDER=
